<svg xmlns="http://www.w3.org/2000/svg" version="1.1" xmlns:xlink="http://www.w3.org/1999/xlink" xmlns:svgjs="http://svgjs.dev/svgjs" width="1500" height="212" viewBox="0 0 1500 212"><g transform="matrix(1,0,0,1,-0.9090909090909918,-0.47262118665035757)"><svg viewBox="0 0 396 56" data-background-color="#ffffff" preserveAspectRatio="xMidYMid meet" height="212" width="1500" xmlns="http://www.w3.org/2000/svg" xmlns:xlink="http://www.w3.org/1999/xlink"><g id="tight-bounds" transform="matrix(1,0,0,1,0.2400000000000091,0.12484333232274025)"><svg viewBox="0 0 395.52 55.7503133353545" height="55.7503133353545" width="395.52"><g><svg viewBox="0 0 505.644824602684 71.2729" height="55.7503133353545" width="395.52"><g><svg viewBox="0 0 505.644824602684 71.2729" height="71.2729" width="505.644824602684"><g id="textblocktransform"><svg viewBox="0 0 505.644824602684 71.2729" height="71.2729" width="505.644824602684" id="textblock"><g><svg viewBox="0 0 505.644824602684 71.2729" height="71.2729" width="505.644824602684"><g><svg><g></g><g></g></svg></g><g><svg><g><svg></svg></g><g></g></svg></g><g id="text-0"><svg viewBox="0 0 505.644824602684 71.2729" height="71.2729" width="505.644824602684"><g transform="matrix(1,0,0,1,0,0)"><svg width="340.58900000000006" viewBox="1.75 -35.35 210.48 44.05" height="71.2729" data-palette-color="#4d7e3e"><path d="M10.9-14.2L10.25-12.3 22.2-12.3 21.55-14.25 16.3-30.45Q15.7-28.3 10.9-14.2L10.9-14.2ZM30.65 0L26.3 0 23.35-8.85 9.1-8.85 6.1 0 1.75 0 13.5-33.7 19.1-33.7 30.65 0ZM45.7-3.2L45.7-3.2Q48.8-3.2 50.97-5.5 53.15-7.8 53.15-12.85L53.15-12.85Q53.15-17.65 50.9-19.9 48.65-22.15 45.95-22.15L45.95-22.15Q42.8-22.15 40.72-19.63 38.65-17.1 38.65-12.4L38.65-12.4Q38.65-8.3 40.65-5.75 42.65-3.2 45.7-3.2ZM53.15-21.5L53.15-35.35 57.1-35.35 57.1 0 53.15 0 53.15-3.75Q50.45 0.4 45.35 0.4L45.35 0.4Q40.3 0.4 37.42-3.35 34.55-7.1 34.55-12.45L34.55-12.45Q34.55-18.4 37.6-22.08 40.65-25.75 45.45-25.75L45.45-25.75Q50.4-25.75 53.15-21.5L53.15-21.5ZM64.4-35.35L68.3-35.35 68.3-20.95Q70.55-25.7 76.3-25.7L76.3-25.7Q79.95-25.7 82.17-23.45 84.4-21.2 84.4-17.35L84.4-17.35 84.4 0 80.45 0 80.45-16.4Q80.45-19.15 79.02-20.65 77.59-22.15 75.3-22.15L75.3-22.15Q72.5-22.15 70.4-20 68.3-17.85 68.3-13.85L68.3-13.85 68.3 0 64.4 0 64.4-35.35ZM105.04-8.45L105.04-11.7 100.64-11.7Q97.44-11.7 95.84-10.45 94.24-9.2 94.24-7.3 94.24-5.4 95.49-4.23 96.74-3.05 99.14-3.05L99.14-3.05Q101.84-3.05 103.44-4.58 105.04-6.1 105.04-8.45L105.04-8.45ZM91.94-20.05L91.94-20.05 91.94-24Q94.79-25.75 99.44-25.75L99.44-25.75Q108.99-25.75 108.99-16.05L108.99-16.05 108.99 0 105.09 0 105.09-3Q103.14 0.25 97.99 0.25L97.99 0.25Q94.44 0.25 92.27-1.85 90.09-3.95 90.09-7.15L90.09-7.15Q90.09-10.8 92.87-12.83 95.64-14.85 100.44-14.85L100.44-14.85 105.04-14.85 105.04-16.15Q105.04-19.15 103.69-20.68 102.34-22.2 99.14-22.2L99.14-22.2Q95.09-22.2 91.94-20.05ZM122.99-0.65L122.99-0.65 112.74-25.35 117.19-25.35 120.49-17 124.94-5.5Q125.34-6.8 128.94-17L128.94-17 131.89-25.35 136.14-25.35 126.99-0.65Q125.04 4.5 122.37 6.6 119.69 8.7 116.24 8.7L116.24 8.7Q114.94 8.7 114.14 8.45L114.14 8.45 114.14 4.9Q114.89 5.1 115.84 5.1L115.84 5.1Q120.89 5.1 122.99-0.65ZM154.29-8.45L154.29-11.7 149.89-11.7Q146.69-11.7 145.09-10.45 143.49-9.2 143.49-7.3 143.49-5.4 144.74-4.23 145.99-3.05 148.39-3.05L148.39-3.05Q151.09-3.05 152.69-4.58 154.29-6.1 154.29-8.45L154.29-8.45ZM141.19-20.05L141.19-20.05 141.19-24Q144.04-25.75 148.69-25.75L148.69-25.75Q158.24-25.75 158.24-16.05L158.24-16.05 158.24 0 154.34 0 154.34-3Q152.39 0.25 147.24 0.25L147.24 0.25Q143.69 0.25 141.51-1.85 139.34-3.95 139.34-7.15L139.34-7.15Q139.34-10.8 142.11-12.83 144.89-14.85 149.69-14.85L149.69-14.85 154.29-14.85 154.29-16.15Q154.29-19.15 152.94-20.68 151.59-22.2 148.39-22.2L148.39-22.2Q144.34-22.2 141.19-20.05ZM165.24-25.35L169.14-25.35 169.14-20.95Q171.39-25.7 177.14-25.7L177.14-25.7Q180.84-25.7 183.04-23.45 185.24-21.2 185.24-17.45L185.24-17.45 185.24 0 181.29 0 181.29-16.4Q181.29-19.2 179.86-20.68 178.44-22.15 176.14-22.15L176.14-22.15Q173.28-22.15 171.21-19.95 169.14-17.75 169.14-13.85L169.14-13.85 169.14 0 165.24 0 165.24-25.35ZM192.23-25.35L196.13-25.35 196.13-20.95Q198.38-25.7 204.13-25.7L204.13-25.7Q207.83-25.7 210.03-23.45 212.23-21.2 212.23-17.45L212.23-17.45 212.23 0 208.28 0 208.28-16.4Q208.28-19.2 206.86-20.68 205.43-22.15 203.13-22.15L203.13-22.15Q200.28-22.15 198.21-19.95 196.13-17.75 196.13-13.85L196.13-13.85 196.13 0 192.23 0 192.23-25.35Z" opacity="1" transform="matrix(1,0,0,1,0,0)" fill="#4d7e3e" class="wordmark-text-0" data-fill-palette-color="primary"></path></svg></g><g><svg xmlns="http://www.w3.org/2000/svg" xmlns:xlink="http://www.w3.org/1999/xlink" version="1.1" x="357.41610000000003" y="0" viewBox="0 23.36325 90 43.274750000000004" style="enable-background:new 0 0 90 90;" xml:space="preserve" height="71.2729" width="148.228724602684" class="icon-cg-0" data-fill-palette-color="accent" id="cg-0"><path d="M87.921 42.246L49.199 24.159c-2.275-1.061-6.123-1.061-8.398 0L2.08 42.246C0.269 43.088 0 44.209 0 44.807c0 0.59 0.269 1.718 2.08 2.561l7.204 3.369v7.794c-1.081 0.358-1.874 1.347-1.874 2.548 0 1.506 1.221 2.726 2.723 2.726s2.723-1.22 2.723-2.726c0-1.201-0.793-2.189-1.874-2.548v-7.004l13.316 6.222v1.393 0.657c0 1.996 2.6 3.787 6.723 5.041 3.671 1.114 8.543 1.798 13.909 1.798 5.367 0 10.242-0.684 13.914-1.798 4.119-1.254 6.72-3.045 6.72-5.041v-0.657-1.233-0.093l22.36-10.447C89.729 46.518 90 45.396 90 44.807 89.997 44.209 89.729 43.088 87.921 42.246zM10.132 62.106c-0.564 0-1.025-0.465-1.025-1.028 0-0.537 0.428-0.955 0.958-0.995 0.023 0 0.04 0.026 0.066 0.026s0.043-0.026 0.066-0.026c0.531 0.04 0.958 0.458 0.958 0.995C11.157 61.642 10.696 62.106 10.132 62.106zM26.712 48.886c3.367-3.907 10.255-6.6 18.218-6.6 7.99 0 14.902 2.713 18.256 6.64 0.02 0.02 0.032 0.046 0.053 0.073 0.238 0.285 0.428 0.583 0.627 0.875v0.617 0.133 0.623 5.838c-1.615-1.234-4.302-2.282-7.668-3.012-0.916-0.199-1.884-0.372-2.893-0.524-2.561-0.378-5.389-0.59-8.375-0.59-2.944 0-5.737 0.205-8.271 0.577-1.012 0.146-1.98 0.318-2.899 0.517-3.413 0.73-6.132 1.785-7.764 3.032v-5.838-0.623-0.199-0.558c0.212-0.318 0.421-0.637 0.68-0.941L26.712 48.886zM58.505 63.161c-3.19 0.994-7.728 1.777-13.575 1.777-5.847 0-10.384-0.783-13.574-1.777-3.227-1.009-5.005-2.229-5.26-3.132-0.023-0.072-0.1-0.159-0.1-0.231 0-0.213 0.106-0.444 0.302-0.696 0.189-0.246 0.484-0.505 0.856-0.77 1.552-1.115 4.683-2.329 9.253-3.045 0.992-0.152 2.076-0.272 3.204-0.378 1.648-0.146 3.39-0.252 5.319-0.252 1.978 0 3.752 0.112 5.437 0.265 1.121 0.106 2.199 0.226 3.188 0.385 4.511 0.724 7.615 1.917 9.153 3.025 0.372 0.265 0.667 0.523 0.856 0.77 0.195 0.252 0.302 0.483 0.302 0.696 0 0.072-0.076 0.159-0.1 0.231C63.51 60.932 61.732 62.152 58.505 63.161zM87.204 45.828L65.563 55.938v-6.242V49.37c-0.093-0.146-0.17-0.299-0.269-0.444-0.17-0.245-0.396-0.471-0.584-0.703-3.622-4.511-11.101-7.635-19.781-7.635-8.649 0-16.108 3.104-19.74 7.588-0.206 0.252-0.445 0.491-0.624 0.75-0.1 0.146-0.176 0.299-0.269 0.444v0.259 6.242l-13.316-6.216V44.76c0-0.471-0.381-0.849-0.849-0.849s-0.849 0.378-0.849 0.849v4.1l-6.487-3.031c-0.809-0.378-1.098-0.789-1.098-1.021 0-0.239 0.289-0.644 1.098-1.021l38.722-18.087c0.902-0.421 2.172-0.664 3.482-0.664 1.311 0 2.58 0.242 3.482 0.664l38.722 18.087c0.81 0.378 1.095 0.782 1.098 1.021C88.302 45.039 88.014 45.45 87.204 45.828z" fill="#4d7e3e" data-fill-palette-color="accent"></path></svg></g></svg></g></svg></g></svg></g></svg></g><g></g></svg></g><defs></defs></svg><rect width="395.52" height="55.7503133353545" fill="none" stroke="none" visibility="hidden"></rect></g></svg></g></svg>